<svg xmlns="http://www.w3.org/2000/svg" width="268" height="72" viewBox="0 0 268 72" role="img" aria-label="Factur-X by Orvel"><title>Factur-X by Orvel</title><g transform="translate(4 4) scale(0.5714285714285714)"><defs><linearGradient id="f3d-export-light" x1="0" y1="0" x2=".5" y2="1"><stop stop-color="#8AB8FF"/><stop offset="1" stop-color="#5790FF"/></linearGradient><linearGradient id="f3d-export-main" x1="0" y1="0" x2=".7" y2="1"><stop stop-color="#2F68EE"/><stop offset="1" stop-color="#234CBA"/></linearGradient><clipPath id="f3d-export-overlap"><path d="M48 12H96V28A32 32 0 0 1 64 60H44V100H16V44A32 32 0 0 1 48 12Z" fill="#fff"/></clipPath></defs><path d="M48 12H96V28A32 32 0 0 1 64 60H44V100H16V44A32 32 0 0 1 48 12Z" fill="url(#f3d-export-light)"/><path d="M48 44H92V56A32 32 0 0 1 60 88H16V76A32 32 0 0 1 48 44Z" fill="url(#f3d-export-main)"/><g clip-path="url(#f3d-export-overlap)"><path d="M48 44H92V56A32 32 0 0 1 60 88H16V76A32 32 0 0 1 48 44Z" fill="#234CBA"/></g></g><text x="78" y="40" fill="#111827" font-family="Inter, 'Segoe UI', Helvetica, Arial, sans-serif" font-size="34" font-weight="600" letter-spacing="-0.8">Factur-X</text><text x="79" y="62" fill="#64748B" font-family="Inter, 'Segoe UI', Helvetica, Arial, sans-serif" font-size="15" font-weight="500">by Orvel</text></svg>